<svg width="89" height="28" viewBox="0 0 89 28" fill="none" xmlns="http://www.w3.org/2000/svg">
<path d="M17.5039 27.1368C16.2089 27.389 13.809 27.4872 12.8448 27.4872H0.971924L5.34596 8.83118H10.1915L11.2472 4.37743H16.084L17.0992 0.0585938H19.4481C20.2645 0.0585938 21.6633 0.105899 21.9237 0.130428C29.5756 0.831254 34.3068 6.66388 32.6371 13.7738C31.1063 20.2897 24.6984 25.7386 17.5039 27.1368ZM18.3256 14.0436C19.0628 13.7562 19.6293 13.2937 19.7789 12.7138C19.9707 11.8272 19.6698 11.3121 19.251 11.03C18.932 10.8331 18.5697 10.7165 18.1954 10.6901C17.9279 10.6603 17.4018 10.6656 17.4018 10.6656H11.7944L9.2819 21.3532H14.1204C15.199 21.3532 16.4077 21.3374 17.2312 21.1447L15.5843 16.1496H12.2871L12.7164 14.3222H16.2916C16.9776 14.3325 17.6611 14.2386 18.3185 14.0436H18.3256ZM12.8466 6.19082L12.2255 8.83118H18.1619C19.0012 8.83118 19.5167 8.83118 20.0727 8.97134C21.8955 9.44615 22.1471 11.0248 22.1471 11.0248C22.2939 11.9568 22.1124 12.9107 21.6334 13.7247C20.5143 15.666 18.0599 16.1496 18.0599 16.1496L19.4675 20.4404C22.4586 19.1526 24.8972 16.6209 25.5834 13.7019C26.3945 10.2451 24.5365 7.37697 21.2322 6.43786C20.5911 6.28745 19.9359 6.20465 19.2774 6.19082H12.8466ZM20.6903 1.87548H18.7056L18.1179 4.38094H19.2757C20.3619 4.36606 21.4435 4.52399 22.4797 4.84874C26.0197 6.17855 28.5622 9.83511 27.6349 13.7843C26.5616 18.3501 22.499 22.019 17.0904 22.9844C16.2821 23.1126 15.465 23.1782 14.6465 23.1806H6.82392L9.76223 10.6411H6.94708L3.42814 25.7877C3.42814 25.7877 9.33644 25.6457 12.7181 25.6457C13.341 25.6457 16.6893 25.5389 18.6651 24.9274C24.167 23.2244 29.2835 18.8512 30.5099 13.6301C32.0002 7.26308 27.6807 2.21013 20.6903 1.87198V1.87548Z" fill="white"/>
<path d="M78.9467 20.773V7.68213H83.8558C84.8615 7.68213 85.7052 7.86963 86.3871 8.24463C87.0731 8.61963 87.5909 9.13525 87.9403 9.7915C88.294 10.4435 88.4709 11.185 88.4709 12.0159C88.4709 12.8554 88.294 13.6012 87.9403 14.2532C87.5866 14.9051 87.0646 15.4186 86.3743 15.7936C85.6839 16.1644 84.8338 16.3497 83.8238 16.3497H81.3182V20.773H78.9467ZM83.5042 14.4002C84.0923 14.4002 84.5738 14.2979 84.9488 14.0934C85.3238 13.8888 85.6008 13.6076 85.7798 13.2496C85.9631 12.8916 86.0547 12.4804 86.0547 12.0159C86.0547 11.5514 85.9631 11.1424 85.7798 10.7887C85.6008 10.435 85.3217 10.1601 84.9425 9.96409C84.5675 9.76381 84.0838 9.66366 83.4915 9.66366H81.3182V14.4002H83.5042Z" fill="white"/>
<path d="M68.0131 7.68213V20.773H76.5785V18.7851H70.3846V15.212H76.0863V13.224H70.3846V9.67006H76.5273V7.68213H68.0131Z" fill="white"/>
<path d="M56.3061 20.773V7.68213H61.2152C62.2209 7.68213 63.0646 7.85684 63.7464 8.20628C64.4325 8.55571 64.9503 9.04576 65.2997 9.67645C65.6534 10.3029 65.8302 11.0337 65.8302 11.8689C65.8302 12.7084 65.6513 13.4371 65.2933 14.055C64.9396 14.6686 64.4176 15.1438 63.7273 15.4804C63.6464 15.5194 63.5634 15.556 63.4782 15.5904L66.3096 20.773H63.6633L61.0907 15.979H58.6775V20.773H56.3061ZM58.6775 14.0103H60.8636C61.4517 14.0103 61.9332 13.9293 62.3082 13.7674C62.6832 13.6012 62.9602 13.3604 63.1392 13.0451C63.3224 12.7255 63.414 12.3334 63.414 11.8689C63.414 11.4044 63.3224 11.0081 63.1392 10.68C62.956 10.3476 62.6768 10.0962 62.3018 9.92574C61.9268 9.75102 61.4432 9.66366 60.8508 9.66366H58.6775V14.0103Z" fill="white"/>
<path d="M43.2631 20.773H47.6992C49.0287 20.773 50.1665 20.511 51.1126 19.9868C52.0628 19.4627 52.7894 18.7105 53.2922 17.7304C53.7993 16.7503 54.0529 15.5784 54.0529 14.2148C54.0529 12.8554 53.8015 11.6878 53.2986 10.712C52.7958 9.73611 52.0756 8.98824 51.1381 8.46835C50.2049 7.9442 49.0884 7.68213 47.7887 7.68213H43.2631V20.773ZM47.5841 18.7212H45.6346V9.73398H47.6545C48.5408 9.73398 49.2823 9.90017 49.8789 10.2326C50.4797 10.5607 50.9336 11.0571 51.2404 11.7219C51.5472 12.3824 51.7006 13.2134 51.7006 14.2148C51.7006 15.2162 51.5472 16.0514 51.2404 16.7205C50.9336 17.3853 50.4755 17.886 49.8661 18.2226C49.2567 18.555 48.4961 18.7212 47.5841 18.7212Z" fill="white"/>
</svg>
